# xmcd
# 
# Track frame offsets:
#   150
#   21957
#   40515
#   57170
#   73212
# 
# Disc length: 1208 seconds
# 
# Revision: 0
# Processed by: cddbd v1.5.2PL0 Copyright (c) Steve Scherf et al.
# Submitted via: Synapstar 1.0 
# 
DISCID=3d04b605
DTITLE=Various Artist - UNKNOWN
DYEAR=1900
DGENRE=Country
TTITLE0=SARA EVENS - YOU'LL ALWAYS BE MY BABY
TTITLE1=TAYLOR SWIFT - TIM MCGRAW
TTITLE2=KENNY ROGERS - THE LAST TEN YEARS
TTITLE3=SHEDAISY - THIS WOMAN NEEDS
TTITLE4=GRETCHEN WILSON - HOLDIN YOU
EXTD=MediaType: Karaoke CD+G Producer: Unknown
EXTT0=
EXTT1=
EXTT2=
EXTT3=
EXTT4=
PLAYORDER=
